# xmcd CD database file
#
# Track frame offsets:
#	150
#	27095
#	58399
#	89259
#	120898
#	157942
#	183240
#	224145
#	240356
#	268053
#
# Disc length: 3847 seconds
#
# Revision: 0
# Processed by: cddbd v1.5PL3 Copyright (c) Steve Scherf et al.
# Submitted via: CDex 1.51
#
DISCID=820f050a
DTITLE=Temple University Jazz Band - Mean What You Say
DYEAR=2003
DGENRE=Jazz
TTITLE0=Mean What You Say
TTITLE1=Not A Love Song
TTITLE2=Gumbo G
TTITLE3=Dolphin Dance
TTITLE4=The Fadd
TTITLE5=Nice Work If You Can Get It
TTITLE6=Basie In Mind
TTITLE7=Brotherhood of Man
TTITLE8=Quasi Modal
TTITLE9=Mueva Los Huesos
EXTD=YEAR: 2003
EXTT0=
EXTT1=
EXTT2=
EXTT3=
EXTT4=
EXTT5=
EXTT6=
EXTT7=
EXTT8=
EXTT9=
PLAYORDER=
